<?xml version="1.0" encoding="utf-8"?>
<!-- Generator: Adobe Illustrator 22.0.1, SVG Export Plug-In . SVG Version: 6.00 Build 0)  -->
<svg version="1.1" id="Layer_1" xmlns="http://www.w3.org/2000/svg" xmlns:xlink="http://www.w3.org/1999/xlink" x="0px" y="0px"
	 viewBox="0 0 190.9 179.7" style="enable-background:new 0 0 190.9 179.7;" xml:space="preserve">
<style type="text/css">
	.st0{clip-path:url(#SVGID_2_);}
	.st1{clip-path:url(#SVGID_6_);}
	.st2{opacity:0.3;clip-path:url(#SVGID_10_);}
	.st3{clip-path:url(#SVGID_12_);}
</style>
<g>
	<defs>
		<path id="SVGID_1_" d="M53.9,167.3c0-4,3.3-7.3,7.3-7.3c4,0,7.3,3.3,7.3,7.3c0,4-3.3,7.3-7.3,7.3
			C57.1,174.6,53.9,171.3,53.9,167.3 M48.8,167.3c0,6.8,5.5,12.4,12.4,12.4c6.8,0,12.4-5.5,12.4-12.4c0-6.8-5.5-12.4-12.4-12.4
			C54.3,154.9,48.8,160.5,48.8,167.3 M75.8,167.3v12.1H81v-12.1c0-4,3.3-7.3,7.3-7.3v-5.1C81.4,154.9,75.8,160.5,75.8,167.3
			 M98.5,172.9c-1.8-1.3-2.9-3.4-2.9-5.8c0-4,3.2-7.2,7.2-7.2c2.4,0,4.5,1.1,5.8,2.9c0.9,1.2,1.4,2.7,1.4,4.3c0,4-3.2,7.2-7.2,7.2
			C101.1,174.3,99.7,173.8,98.5,172.9 M90.5,167.2c0,5.3,3.3,9.7,8,11.5c1.3,0.5,2.8,0.8,4.3,0.8H115v-12.2c0-1.5-0.3-2.9-0.8-4.3
			c-1.7-4.7-6.2-8-11.5-8C96,154.9,90.5,160.4,90.5,167.2 M149.3,167.3c0-4,3.3-7.3,7.3-7.3c4,0,7.3,3.3,7.3,7.3
			c0,4-3.3,7.3-7.3,7.3C152.5,174.6,149.3,171.3,149.3,167.3 M144.2,167.3c0,6.8,5.5,12.4,12.4,12.4c6.8,0,12.4-5.5,12.4-12.4
			c0-6.8-5.5-12.4-12.4-12.4C149.7,154.9,144.2,160.5,144.2,167.3 M27,167.3c0-4,3.3-7.3,7.3-7.3c3.4,0,6.2,2.3,7,5.5v3.6
			c-0.8,3.1-3.6,5.5-7,5.5C30.3,174.6,27,171.3,27,167.3 M41.3,144.1v13c-2-1.4-4.4-2.2-7-2.2c-6.8,0-12.4,5.5-12.4,12.4
			c0,6.8,5.5,12.4,12.4,12.4c2.6,0,5-0.8,7-2.2c3.2-2.2,5.4-6,5.4-10.2v-23.2H41.3z M122.3,167.3c0-4,3.3-7.3,7.3-7.3
			c3.4,0,6.2,2.3,7,5.5v3.6c-0.8,3.1-3.6,5.5-7,5.5C125.6,174.6,122.3,171.3,122.3,167.3 M136.6,144.1v13c-2-1.4-4.4-2.2-7-2.2
			c-6.8,0-12.4,5.5-12.4,12.4c0,6.8,5.5,12.4,12.4,12.4c2.6,0,5-0.8,7-2.2c3.2-2.2,5.4-6,5.4-10.2v-23.2H136.6z M153.5,38L95.4,96.5
			L37.3,38H0l95.4,95.8L190.9,38H153.5z M129.4,18.4l-34,34.3L61.3,18.4H22l73.4,73.7l73.5-73.7H129.4z M47.5,0l48.1,48.1L143.7,0
			H47.5z"/>
	</defs>
	<clipPath id="SVGID_2_">
		<use xlink:href="#SVGID_1_"  style="overflow:visible;"/>
	</clipPath>
	<g class="st0">
		<defs>
			<rect id="SVGID_3_" x="-690" y="-217.6" width="1340.4" height="555.1"/>
		</defs>
		<clipPath id="SVGID_4_">
			<use xlink:href="#SVGID_3_"  style="overflow:visible;"/>
		</clipPath>
		<g transform="matrix(1 0 0 1 -6.103516e-05 0)" style="clip-path:url(#SVGID_4_);">
			
				<image style="overflow:visible;" width="2562" height="1061" xlink:href="E8547C6FBA75CD80.jpg"  transform="matrix(0.5232 0 0 0.5232 -689.9628 -217.5937)">
			</image>
		</g>
	</g>
</g>
<g>
	<defs>
		<path id="SVGID_5_" d="M53.9,167.3c0-4,3.3-7.3,7.3-7.3c4,0,7.3,3.3,7.3,7.3c0,4-3.3,7.3-7.3,7.3
			C57.1,174.6,53.9,171.3,53.9,167.3 M48.8,167.3c0,6.8,5.5,12.4,12.4,12.4c6.8,0,12.4-5.5,12.4-12.4c0-6.8-5.5-12.4-12.4-12.4
			C54.3,154.9,48.8,160.5,48.8,167.3 M75.8,167.3v12.1H81v-12.1c0-4,3.3-7.3,7.3-7.3v-5.1C81.4,154.9,75.8,160.5,75.8,167.3
			 M98.5,172.9c-1.8-1.3-2.9-3.4-2.9-5.8c0-4,3.2-7.2,7.2-7.2c2.4,0,4.5,1.1,5.8,2.9c0.9,1.2,1.4,2.7,1.4,4.3c0,4-3.2,7.2-7.2,7.2
			C101.1,174.3,99.7,173.8,98.5,172.9 M90.5,167.2c0,5.3,3.3,9.7,8,11.5c1.3,0.5,2.8,0.8,4.3,0.8H115v-12.2c0-1.5-0.3-2.9-0.8-4.3
			c-1.7-4.7-6.2-8-11.5-8C96,154.9,90.5,160.4,90.5,167.2 M149.3,167.3c0-4,3.3-7.3,7.3-7.3c4,0,7.3,3.3,7.3,7.3
			c0,4-3.3,7.3-7.3,7.3C152.5,174.6,149.3,171.3,149.3,167.3 M144.2,167.3c0,6.8,5.5,12.4,12.4,12.4c6.8,0,12.4-5.5,12.4-12.4
			c0-6.8-5.5-12.4-12.4-12.4C149.7,154.9,144.2,160.5,144.2,167.3 M27,167.3c0-4,3.3-7.3,7.3-7.3c3.4,0,6.2,2.3,7,5.5v3.6
			c-0.8,3.1-3.6,5.5-7,5.5C30.3,174.6,27,171.3,27,167.3 M41.3,144.1v13c-2-1.4-4.4-2.2-7-2.2c-6.8,0-12.4,5.5-12.4,12.4
			c0,6.8,5.5,12.4,12.4,12.4c2.6,0,5-0.8,7-2.2c3.2-2.2,5.4-6,5.4-10.2v-23.2H41.3z M122.3,167.3c0-4,3.3-7.3,7.3-7.3
			c3.4,0,6.2,2.3,7,5.5v3.6c-0.8,3.1-3.6,5.5-7,5.5C125.6,174.6,122.3,171.3,122.3,167.3 M136.6,144.1v13c-2-1.4-4.4-2.2-7-2.2
			c-6.8,0-12.4,5.5-12.4,12.4c0,6.8,5.5,12.4,12.4,12.4c2.6,0,5-0.8,7-2.2c3.2-2.2,5.4-6,5.4-10.2v-23.2H136.6z M153.5,38L95.4,96.5
			L37.3,38H0l95.4,95.8L190.9,38H153.5z M129.4,18.4l-34,34.3L61.3,18.4H22l73.4,73.7l73.5-73.7H129.4z M47.5,0l48.1,48.1L143.7,0
			H47.5z"/>
	</defs>
	<clipPath id="SVGID_6_">
		<use xlink:href="#SVGID_5_"  style="overflow:visible;"/>
	</clipPath>
	<g class="st1">
		<defs>
			<rect id="SVGID_7_" x="-56.9" y="-156.3" width="524.1" height="349.4"/>
		</defs>
		<clipPath id="SVGID_8_">
			<use xlink:href="#SVGID_7_"  style="overflow:visible;"/>
		</clipPath>
		<g transform="matrix(1 0 0 1 3.814697e-06 0)" style="clip-path:url(#SVGID_8_);">
			
				<image style="overflow:visible;" width="6240" height="4160" xlink:href="E8547C6FBA75CD81.jpg"  transform="matrix(8.398890e-02 0 0 8.398890e-02 -56.932 -156.3321)">
			</image>
		</g>
	</g>
</g>
<g>
	<defs>
		<path id="SVGID_9_" d="M53.9,167.3c0-4,3.3-7.3,7.3-7.3c4,0,7.3,3.3,7.3,7.3c0,4-3.3,7.3-7.3,7.3
			C57.1,174.6,53.9,171.3,53.9,167.3 M48.8,167.3c0,6.8,5.5,12.4,12.4,12.4c6.8,0,12.4-5.5,12.4-12.4c0-6.8-5.5-12.4-12.4-12.4
			C54.3,154.9,48.8,160.5,48.8,167.3 M75.8,167.3v12.1H81v-12.1c0-4,3.3-7.3,7.3-7.3v-5.1C81.4,154.9,75.8,160.5,75.8,167.3
			 M98.5,172.9c-1.8-1.3-2.9-3.4-2.9-5.8c0-4,3.2-7.2,7.2-7.2c2.4,0,4.5,1.1,5.8,2.9c0.9,1.2,1.4,2.7,1.4,4.3c0,4-3.2,7.2-7.2,7.2
			C101.1,174.3,99.7,173.8,98.5,172.9 M90.5,167.2c0,5.3,3.3,9.7,8,11.5c1.3,0.5,2.8,0.8,4.3,0.8H115v-12.2c0-1.5-0.3-2.9-0.8-4.3
			c-1.7-4.7-6.2-8-11.5-8C96,154.9,90.5,160.4,90.5,167.2 M149.3,167.3c0-4,3.3-7.3,7.3-7.3c4,0,7.3,3.3,7.3,7.3
			c0,4-3.3,7.3-7.3,7.3C152.5,174.6,149.3,171.3,149.3,167.3 M144.2,167.3c0,6.8,5.5,12.4,12.4,12.4c6.8,0,12.4-5.5,12.4-12.4
			c0-6.8-5.5-12.4-12.4-12.4C149.7,154.9,144.2,160.5,144.2,167.3 M27,167.3c0-4,3.3-7.3,7.3-7.3c3.4,0,6.2,2.3,7,5.5v3.6
			c-0.8,3.1-3.6,5.5-7,5.5C30.3,174.6,27,171.3,27,167.3 M41.3,144.1v13c-2-1.4-4.4-2.2-7-2.2c-6.8,0-12.4,5.5-12.4,12.4
			c0,6.8,5.5,12.4,12.4,12.4c2.6,0,5-0.8,7-2.2c3.2-2.2,5.4-6,5.4-10.2v-23.2H41.3z M122.3,167.3c0-4,3.3-7.3,7.3-7.3
			c3.4,0,6.2,2.3,7,5.5v3.6c-0.8,3.1-3.6,5.5-7,5.5C125.6,174.6,122.3,171.3,122.3,167.3 M136.6,144.1v13c-2-1.4-4.4-2.2-7-2.2
			c-6.8,0-12.4,5.5-12.4,12.4c0,6.8,5.5,12.4,12.4,12.4c2.6,0,5-0.8,7-2.2c3.2-2.2,5.4-6,5.4-10.2v-23.2H136.6z M153.5,38L95.4,96.5
			L37.3,38H0l95.4,95.8L190.9,38H153.5z M129.4,18.4l-34,34.3L61.3,18.4H22l73.4,73.7l73.5-73.7H129.4z M47.5,0l48.1,48.1L143.7,0
			H47.5z"/>
	</defs>
	<clipPath id="SVGID_10_">
		<use xlink:href="#SVGID_9_"  style="overflow:visible;"/>
	</clipPath>
	<g class="st2">
		<g>
			<defs>
				<rect id="SVGID_11_" x="-56.5" y="-61.4" width="264.6" height="264.6"/>
			</defs>
			<clipPath id="SVGID_12_">
				<use xlink:href="#SVGID_11_"  style="overflow:visible;"/>
			</clipPath>
			<rect x="-56.5" y="-61.4" class="st3" width="264.6" height="264.6"/>
		</g>
	</g>
</g>
</svg>
