<svg id="Layer_1" data-name="Layer 1" xmlns="http://www.w3.org/2000/svg" viewBox="0 0 40 40"><defs><style>.cls-1{fill:#997752;}</style></defs><title>icons-menu</title><g id="Bp04n3.tif"><path class="cls-1" d="M26.79,33.6H21.5A1.36,1.36,0,0,1,20,32.1V21.52A1.37,1.37,0,0,1,21.52,20H32.1a1.36,1.36,0,0,1,1.49,1.5V32.09a1.35,1.35,0,0,1-1.51,1.51Z"/><path class="cls-1" d="M26.81,17.28H18.23c-.73,0-1,.22-1,.95v8.58h-3.9a1.38,1.38,0,0,1-1.53-1.54V13.35a1.37,1.37,0,0,1,1.5-1.5h12a1.36,1.36,0,0,1,1.48,1.46C26.81,14.61,26.81,15.92,26.81,17.28Z"/><path class="cls-1" d="M21.35,9.12H10.05c-.71,0-.94.23-.94.93V21.34a12.73,12.73,0,0,1-1.64,0A1.28,1.28,0,0,1,6.41,20c0-1.72,0-3.44,0-5.16V7.93A1.36,1.36,0,0,1,7.92,6.41c4,0,7.92,0,11.88,0A1.44,1.44,0,0,1,21.36,8C21.33,8.34,21.35,8.7,21.35,9.12Z"/></g></svg>