<svg id="Layer_1" data-name="Layer 1" xmlns="http://www.w3.org/2000/svg" viewBox="0 0 40 40"><defs><style>.cls-1{fill:#997752;}</style></defs><title>icons-menu</title><path class="cls-1" d="M32.25,20.34V13.49H16.43v1.26c0,4.16,0,8.33,0,12.49A5.64,5.64,0,0,1,11.11,33a5.72,5.72,0,1,1,1.23-11.21c.44.13.88.3,1.43.49,0-.43.05-.81.05-1.18q0-5.86,0-11.74c0-1.66.61-2.28,2.27-2.29,5.52,0,11,0,16.58,0,1.61,0,2.26.64,2.27,2.2,0,5.42,0,10.84,0,16.26a5.62,5.62,0,0,1-5.23,5.57,5.69,5.69,0,0,1-6.1-4.77c-.39-2.38.77-4.09,2.57-5.43a5.09,5.09,0,0,1,5.65-.67A3.08,3.08,0,0,0,32.25,20.34Z"/></svg>