<svg id="Layer_1" data-name="Layer 1" xmlns="http://www.w3.org/2000/svg" viewBox="0 0 40 40"><defs><style>.cls-1{fill:#997752;}</style></defs><title>icons-menu</title><path class="cls-1" d="M17.27,33.75H8.82c-1.15,0-1.44-.28-1.44-1.41q0-5.94,0-11.89c0-1.14.28-1.41,1.44-1.41H25.72c1.2,0,1.44.26,1.45,1.49V32.24c0,1.26-.26,1.51-1.53,1.51Zm0-7.36c2.05,0,4.09,0,6.13,0,.65,0,1-.23,1-.91,0-.87,0-1.73,0-2.6,0-.61-.25-.9-.89-.89q-6.23,0-12.43,0c-.65,0-.89.3-.89.91,0,.8,0,1.61,0,2.41s.27,1.11,1.08,1.09C13.25,26.36,15.26,26.39,17.27,26.39Z"/><path class="cls-1" d="M11.24,6.25a5.65,5.65,0,1,0,5.64,5.67A5.62,5.62,0,0,0,11.24,6.25Zm0,7.61a2,2,0,0,1,0-3.93,2,2,0,1,1,0,3.93Z"/><path class="cls-1" d="M29.64,24.43a1.56,1.56,0,0,1,1.25-1.7c1-.36,2-.82,3-1.21s1.72,0,1.73,1.13q0,3.75,0,7.51c0,1.08-.65,1.5-1.67,1.11s-2-.84-3-1.2c-.8-.29-1.36-.71-1.31-1.67l-1.56-.09c0-1.18,0-2.34,0-3.5,0-.13.32-.32.52-.36A5.6,5.6,0,0,1,29.64,24.43Z"/><path class="cls-1" d="M6.42,20.2v4.62H5.21A.73.73,0,0,1,4.37,24c0-.83,0-1.67,0-2.5,0-1.24.08-1.31,1.31-1.3Z"/><path class="cls-1" d="M23.31,6.25A5.65,5.65,0,1,0,29,11.92,5.61,5.61,0,0,0,23.31,6.25Zm0,7.61a2,2,0,1,1,2-2A2,2,0,0,1,23.29,13.86Z"/></svg>