<svg id="Layer_1" data-name="Layer 1" xmlns="http://www.w3.org/2000/svg" viewBox="0 0 40 40"><defs><style>.cls-1{fill:#997752;}</style></defs><title>icons-menu</title><g id="cII5SO.tif"><path class="cls-1" d="M3.92,21.71V19.62a1.17,1.17,0,0,0,.06-.2,13,13,0,0,1,2.41-6.51c3.19-4.37,7.49-6.45,12.9-5.83a13.26,13.26,0,0,1,9.35,5.5l.28.37c0-.25,0-.43,0-.6a2.72,2.72,0,0,1,1.44-2.26,23.35,23.35,0,0,1,2.58-1.21,3.9,3.9,0,0,0,1.64-1.1c.36-.46.74-.39.91.18s.4,1.47.59,2.21v1.49c0,.21-.09.43-.14.64a4.1,4.1,0,0,1-2.49,3.08.79.79,0,0,0-.32.33c-.6,1-1.19,1.94-1.77,2.92a1.36,1.36,0,0,0-.19.62,5.89,5.89,0,0,1-3.79,5.43,2,2,0,0,0-.61.45c-1.06,1.22-2.06,2.48-3.16,3.65a14.36,14.36,0,0,1-2.18,1.78,1.17,1.17,0,0,1-1.4,0,1.29,1.29,0,0,1-.5-1.28,8.19,8.19,0,0,1,.83-2.65c.42-.91.87-1.8,1.31-2.7A1.79,1.79,0,0,0,19.1,25.3a3.43,3.43,0,0,0,0,1,5.92,5.92,0,0,1-.65,3.67,5.45,5.45,0,0,1-5.89,3A8.61,8.61,0,0,1,7.86,30.4a13.44,13.44,0,0,1-3.64-6.94C4.09,22.88,4,22.29,3.92,21.71Zm17.43,6.77.15.1a69.45,69.45,0,0,0,9.92-13.19c-.29-.16-.55-.28-.79-.43s-.46-.32-.74-.51A69.88,69.88,0,0,0,21.35,28.48Zm1.52-16.32A1.9,1.9,0,1,0,24.78,14,1.87,1.87,0,0,0,22.87,12.16ZM12,16.59a1.9,1.9,0,1,0-1.9,1.92A1.89,1.89,0,0,0,12,16.59ZM7.78,23.73A1.88,1.88,0,0,0,9.7,25.62a1.9,1.9,0,1,0,0-3.8A1.88,1.88,0,0,0,7.78,23.73Zm6.1-11.35a1.89,1.89,0,0,0,1.89,1.93,1.91,1.91,0,0,0,0-3.81A1.9,1.9,0,0,0,13.88,12.38Z"/></g></svg>