<svg id="Layer_1" data-name="Layer 1" xmlns="http://www.w3.org/2000/svg" viewBox="0 0 40 40"><defs><style>.cls-1{fill:#997752;}</style></defs><title>icons-menu</title><g id="BagDL3"><path class="cls-1" d="M24.78,30.18V27.79h7.09a4.78,4.78,0,0,0,.85-9.5l-.8-.1a5.27,5.27,0,0,0-3.28-4.32,5.2,5.2,0,0,0-5.39.72,8.47,8.47,0,0,0-9.78-5.77,8.63,8.63,0,0,0-2.91,1.24,8.09,8.09,0,0,0-2.24,2.2,8.41,8.41,0,0,0-1.4,6c-.38.17-.75.31-1.1.48a4.78,4.78,0,0,0,2.34,9c2.19,0,4.38,0,6.58,0h.43v2.39h-7a7,7,0,0,1-5.58-2.51A6.9,6.9,0,0,1,.88,22.41,7,7,0,0,1,4.15,17a.54.54,0,0,0,.29-.47A11.15,11.15,0,0,1,5.63,12.1,10.65,10.65,0,0,1,9.94,7.64a10.27,10.27,0,0,1,5.85-1.37A10.47,10.47,0,0,1,24,10.91a.68.68,0,0,0,.86.33,7.79,7.79,0,0,1,8.89,4.67.56.56,0,0,0,.32.26,6.91,6.91,0,0,1,4.61,4.45,7.18,7.18,0,0,1-6.84,9.56c-2.22,0-4.43,0-6.65,0Z"/><path class="cls-1" d="M14,24.22,20,17l6,7.16H22.39v9.56H17.61V24.22Z"/></g></svg>